<svg width="70" height="70" viewBox="0 0 70 70" fill="none" xmlns="http://www.w3.org/2000/svg"><g clip-path="url(#clip0_2449_21165)"><path d="M56.875 65.625C61.7075 65.625 65.625 61.7075 65.625 56.875C65.625 52.0425 61.7075 48.125 56.875 48.125C52.0425 48.125 48.125 52.0425 48.125 56.875C48.125 61.7075 52.0425 65.625 56.875 65.625Z" fill="#51B55F"></path><path d="M26.2498 28.4375H21.8748V32.8125H26.2498V28.4375Z" fill="#51B55F"></path><path d="M26.2498 39.375H21.8748V43.75H26.2498V39.375Z" fill="#51B55F"></path><path d="M26.2498 50.3125H21.8748V54.6875H26.2498V50.3125Z" fill="#51B55F"></path><path d="M48.1248 28.4375H30.6248V32.8125H48.1248V28.4375Z" fill="#51B55F"></path><path d="M48.1248 39.375H30.6248V43.75H48.1248V39.375Z" fill="#51B55F"></path><path d="M39.375 50.3125H30.6248V54.6875H39.375V50.3125Z" fill="#51B55F"></path><path d="M15.3125 61.25V15.3125H21.875V21.875H48.125V15.3125H54.6875V39.375H59.0625V15.3125C59.0625 14.1522 58.6016 13.0394 57.7811 12.2189C56.9606 11.3984 55.8478 10.9375 54.6875 10.9375H48.125V8.75C48.125 7.58968 47.6641 6.47688 46.8436 5.65641C46.0231 4.83594 44.9103 4.375 43.75 4.375H26.25C25.0897 4.375 23.9769 4.83594 23.1564 5.65641C22.3359 6.47688 21.875 7.58968 21.875 8.75V10.9375H15.3125C14.1522 10.9375 13.0394 11.3984 12.2189 12.2189C11.3984 13.0394 10.9375 14.1522 10.9375 15.3125V61.25C10.9375 62.4103 11.3984 63.5231 12.2189 64.3436C13.0394 65.1641 14.1522 65.625 15.3125 65.625H39.375V61.25H15.3125ZM26.25 8.75H43.75V17.5H26.25V8.75Z" fill="#51B55F"></path></g><defs><clipPath id="clip0_2449_21165"><rect width="70" height="70" fill="white"></rect></clipPath></defs></svg>