<svg width="80" height="80" viewBox="0 0 80 80" fill="none" xmlns="http://www.w3.org/2000/svg"><path d="M33.8459 37.2949H25.0577C22.9685 37.2949 21.2772 38.9861 21.2772 41.0753V58.0547H33.8459V37.2949V37.2949Z" stroke="#51B55F" stroke-width="4" stroke-miterlimit="10" stroke-linecap="round" stroke-linejoin="round"></path><path d="M42.6382 22.2056H37.5974C35.5081 22.2056 33.8169 23.8969 33.8169 25.9862V58.0216H46.3857V25.9862C46.3857 23.8969 44.7275 22.2056 42.6382 22.2056Z" stroke="#51B55F" stroke-width="4" stroke-miterlimit="10" stroke-linecap="round" stroke-linejoin="round"></path><path d="M55.1966 42.9321H46.4084V58.0214H58.9772V46.7127C58.944 44.6235 57.2527 42.9321 55.1966 42.9321Z" stroke="#51B55F" stroke-width="4" stroke-miterlimit="10" stroke-linecap="round" stroke-linejoin="round"></path><path d="M30.1648 73.2769H50.0625C66.644 73.2769 73.2766 66.6444 73.2766 50.0629V30.1652C73.2766 13.5837 66.644 6.95117 50.0625 6.95117H30.1648C13.5834 6.95117 6.95081 13.5837 6.95081 30.1652V50.0629C6.95081 66.6444 13.5834 73.2769 30.1648 73.2769Z" stroke="#51B55F" stroke-width="4" stroke-linecap="round" stroke-linejoin="round"></path></svg>