<svg width="42" height="42" viewBox="0 0 42 42" fill="none" xmlns="http://www.w3.org/2000/svg"><g clip-path="url(#clip0_2449_20775)"><path d="M36.75 13.1255H30.1875V7.87549C30.1867 7.17954 29.9099 6.51233 29.4178 6.02022C28.9257 5.52811 28.2584 5.25129 27.5625 5.25049H14.4375C13.7416 5.25129 13.0743 5.52811 12.5822 6.02022C12.0901 6.51233 11.8133 7.17954 11.8125 7.87549V13.1255H5.25C4.55405 13.1263 3.88684 13.4031 3.39473 13.8952C2.90262 14.3873 2.6258 15.0545 2.625 15.7505V36.7505C2.6258 37.4464 2.90262 38.1137 3.39473 38.6058C3.88684 39.0979 4.55405 39.3747 5.25 39.3755H36.75C37.4459 39.3747 38.1132 39.0979 38.6053 38.6058C39.0974 38.1137 39.3742 37.4464 39.375 36.7505V15.7505C39.3742 15.0545 39.0974 14.3873 38.6053 13.8952C38.1132 13.4031 37.4459 13.1263 36.75 13.1255ZM5.25 36.7505V15.7505H11.8125V18.3755H9.1875V21.0005H11.8125V23.6255H9.1875V26.2505H11.8125V28.8755H9.1875V31.5005H11.8125V36.7505H5.25ZM27.5625 36.7505H14.4375V7.87549H27.5625V36.7505ZM36.75 36.7505H30.1875V31.5005H32.8125V28.8755H30.1875V26.2505H32.8125V23.6255H30.1875V21.0005H32.8125V18.3755H30.1875V15.7505H36.75V36.7505Z" fill="white"></path><path d="M23.625 10.5005H18.375V13.1255H23.625V10.5005Z" fill="white"></path><path d="M23.625 15.7505H18.375V18.3755H23.625V15.7505Z" fill="white"></path><path d="M23.625 21.0005H18.375V23.6255H23.625V21.0005Z" fill="white"></path></g><defs><clipPath id="clip0_2449_20775"><rect width="42" height="42" fill="white" transform="translate(0 0.000488281)"></rect></clipPath></defs></svg>